<?xml version="1.0" encoding="utf-8"?>
<!-- Generator: Adobe Illustrator 27.0.0, SVG Export Plug-In . SVG Version: 6.00 Build 0)  -->
<svg version="1.1" id="레이어_1" xmlns="http://www.w3.org/2000/svg" xmlns:xlink="http://www.w3.org/1999/xlink" x="0px"
	 y="0px" viewBox="0 0 500 500" style="enable-background:new 0 0 500 500;" xml:space="preserve">
<style type="text/css">
	.st0{fill:#13344F;}
	.st1{fill:#2273B0;}
	.st2{fill:#102D48;}
	.st3{opacity:0.6;fill:#9FA0A0;}
	.st4{fill:#EA9023;}
	.st5{fill:#D96320;}
	.st6{fill:#19539B;}
	.st7{fill:#F7F8F8;}
	.st8{fill:#91B4C6;}
	.st9{fill:#F3ECE1;}
	.st10{fill:#3699C7;}
</style>
<g>
	<path class="st0" d="M97.97,349.06c-0.51-0.54-11.34-14.6-14.31-23.52c-4.1-12.29-2.62-24.32,1.97-36.14
		c7.02-18.06,17.48-34.13,28.85-49.67c2.58-3.53,5.25-7.01,7.83-10.54c0.56-0.77,0.9-1.69,1.33-2.54c0.66-1.38,1.6-1.12,2.8-0.66
		c7.2,2.75,14.37,5.62,21.68,8.06c10.24,3.41,20.57,6.53,30.9,9.64c5.35,1.61,10.79,2.92,16.18,4.37
		c8.77,9.14,17.53,18.29,26.3,27.43c2.27,2.59,4.54,5.19,6.82,7.78c0.23,0.16,0.45,0.33,0.68,0.49l-0.07,0
		c0.57,0.77,1.1,1.57,1.72,2.3c4.47,5.24,8.99,10.43,13.44,15.69c6.82,8.04,13.6,16.12,20.41,24.21l3.67,5.26l17.62,20.52
		c1.08-2.63,2.13-5.17,3.24-7.87l0.95-1.64c1.8-2.41,7.38-11.01,8.31-12.82c0.81-1.58,17.7-35.51,23.77-48.09
		c0.87-2.14,1.74-4.29,2.61-6.43c0.18-0.36,0.4-0.71,0.53-1.08c3.59-10.2,7.16-20.4,10.74-30.6c6.75-4.34,13.51-8.68,20.26-13.04
		c1.74-1.12,3.45-2.29,5.17-3.44c9.45,13.59,19.23,26.97,26.72,41.81c9.64,19.09,17.05,38.93,19.32,60.5c0.3,2.81,0.7,5.62,1.27,8.4
		c0.54,2.57-0.35,3.85-2.66,4.39c-0.93,0.21-1.8,0.71-2.69,1.07c-6.67,1.1-13.35,2.21-20.02,3.31c-0.2-0.48-0.59-0.97-0.58-1.45
		c0.07-3.73,0.3-7.47,0.29-11.2c0-1.57,0.05-8.49,0.13-10.42c0.12-2.7-0.61-12.28-0.74-14.38c-0.17-2.73-0.29-5.47-0.53-8.2
		c-0.09-1.05-0.3-2.14-0.69-3.11c-0.62-1.53-1.57-2.93-2.16-4.46c-0.9-2.33-4.13-10.87-4.46-12.5c-0.24,0.03-0.47,0.06-0.71,0.09
		c0,1-0.17,2.04,0.03,3c0.55,2.59,1.62,5.11,1.81,7.72c0.35,4.8-0.44,19.74-0.46,20.79c-0.05,3.67,0.13,7.35,0.32,11.03
		c0.08,1.58-0.51,8.81-1.14,10.9c-0.18,1.63-0.54,10.25-0.88,12.76c-1.1,4.12-2.28,8.23-3.27,12.37c-0.64,2.67-1.95,4.26-4.87,4.44
		c-1.31,0.08-2.59,0.74-3.88,1.14l-3.12,0.63c-2.61,0.36-5.21,0.9-7.79,1.48c-5.11,1.13-10.18,2.53-15.33,3.46
		c-7.14,1.28-14.34,2.27-21.52,3.3c-2.17,0.31-4.38,0.49-6.57,0.44c-1.35-0.03-3.91-0.38-4.84-0.47c-0.93-0.09-2.97-0.67-5.05-1.71
		s-2.4-1.39-3.22-2.12c-0.82-0.73-1.36-1.71-1.36-1.71l-1.79-2.17c0,0-1.91-1.72-2.9-2.55c-1.65-1.38-3.76-0.69-4.32,1.39
		c-1.88,1.6-3.75,3.23-5.66,4.8c-2.83,2.33-5.7,4.62-8.55,6.92c-0.91,0.09-1.82,0.14-2.72,0.28c-2.42,0.4-4.84,1.26-7.24,1.18
		c-4.09-0.14-8.16-0.86-12.25-1.31c-0.46-0.05-0.94,0.14-1.41,0.19c-0.81,0.1-4.58-0.5-5.67-0.54c-4.25-0.15-8.52,0.01-12.77-0.25
		c-5.49-0.34-10.96-0.99-16.45-1.47c-0.69-0.06-1.4,0.13-2.08,0.06c-0.62-0.06-1.22-0.31-1.83-0.47c0.13-2.02,0.25-4.04,0.41-6.07
		c0.6-8.09,1.23-16.18,1.82-24.27c0.72-9.87,1.53-19.74,2.07-29.62c0.3-5.47-3.57-10.3-8.96-11.23c-5.49-0.95-11.02-1.66-16.53-2.53
		c-7.84-1.24-15.66-2.52-23.5-3.79l-3.58-0.54l0.1-9.07c0,0,0.36-11.19,0.36-15.4c-0.31-0.03-0.62-0.07-0.92-0.1
		c-0.29,1.34-0.35,2.78-0.92,3.99c-2.14,4.52-4.63,8.88-6.59,13.47c-0.79,1.85-0.5,4.15-2.41,5.53l-0.1,0.08
		c0,0-0.12-0.05-0.12-0.05c-0.35,0.56-1.03,1.14-1.01,1.69c0.17,3.95,0.24,7.93,0.82,11.83c0.64,4.29,1.76,8.52,2.75,12.76
		c0.61,2.64,1.37,5.24,2.06,7.86l-0.01,0.01c0.21,0.59,0.4,1.2,0.65,1.78c0.35,0.82,0.73,1.63,1.15,2.42
		c0.32,0.6,0.73,1.15,1.11,1.73c0.18-0.09,0.36-0.17,0.54-0.26c-0.37,0.99-0.75,1.99-0.99,2.64c-3.41,0.39-6.68,0.77-9.96,1.15
		c0.02,0.21,0.05,0.42,0.07,0.63c0.23,0.07,0.46,0.13,0.69,0.2c-8.48,2.48-16.15,6.61-23.35,11.61c-3.89,2.71-7.49,5.83-11.23,8.76
		c-2.34,0.79-3.94-0.28-5.39-2.01c-0.84-1.01-1.89-1.84-2.42-2.34C103.7,354.94,98.47,349.6,97.97,349.06z"/>
	<path class="st1" d="M143.78,113.89c-1.55-0.46-2.4-1.13-3.53-1.73c-9.57-5.16-16.35-12.74-19.72-23.14
		c-1.67-5.16,0.73-7.75,6.1-6.69c3,0.59,5.92,1.6,8.66,2.36c-2.04-2.94-4.49-5.92-6.28-9.26c-1.38-2.59-2.29-5.56-2.77-8.47
		c-0.67-4.07,1.78-6.79,5.76-5.91c7.42,1.64,14.82,3.61,21.99,6.11c11.14,3.9,21.65,9.25,31.72,15.45c0.63,0.39,1.69,0.55,2.36,0.3
		c0,0,5.79,8.56-6.68,23.67C168.91,121.68,145.33,114.35,143.78,113.89z"/>
	<path class="st1" d="M334.31,109.11c2.48,2.59,13.55,18.12,16.72,29.17c-3.57-1.61-7.15-3.23-10.72-4.84
		c-2.82-4.34-5.69-8.58-9.9-11.82c-6.7-5.17-14.26-7.17-22.52-6.32c-7.38,0.76-13.76,4.08-19.3,8.95c-4.31,3.79-7.83,8.14-9.47,13.8
		c-1.44,4.95-2.02,9.98-1.81,15.12c-6.25-1.83-12.52-0.63-18.74-0.12c-0.88-2.07-1.74-4.06-2.59-6.06c-0.05-0.17-0.11-0.33-0.16-0.5
		l0.03,0.03c-0.17-0.34-0.34-0.67-0.51-1.01l0.02,0.03c-0.17-0.17-0.34-0.34-0.51-0.52l0.01,0.02c-0.18-0.6-0.21-1.31-0.56-1.79
		c-3.02-4.09-6.02-8.2-9.19-12.18c-4.87-6.12-11.19-10.27-18.5-12.83c-8.36-2.93-17.06-4-25.84-3.38c-4.47,0.32-9,1.26-13.26,2.64
		c-8.95,2.89-15.06,9.25-19.33,17.45c-2.75,5.28-4.57,10.88-5.14,16.84c-6.33,0.34-12.66,0.68-18.98,1.01
		c-5.32,0.28-8.55,4.18-7.8,9.44c0.44,3.07,2.57,4.11,5.26,2.63c0.97-0.53,2.02-1.16,3.07-1.25c5.83-0.46,11.67-0.77,17.51-1.13
		c0.16,5.79,0.1,11.6,0.52,17.37c0.7,9.66,2.96,18.99,6.96,27.86c3.96,8.77,10.61,14.86,19.13,18.91
		c8.12,3.86,16.76,5.17,25.76,4.37c6.18-0.55,12.23-1.61,17.86-4.22c10.14-4.7,17.62-11.76,19.6-23.36
		c0.61,0.65,1.24,1.27,1.82,1.94c4.11,4.73,8.55,9,14.1,12.13c2.66,1.5,4.96,3.03,7.85,0.81c0.49-0.38,0.97-0.78,1.49-1.12
		c0.52-0.33,1.07-0.6,1.61-0.9c1.04-0.33,2.62-0.34,3.02-1.04c1.82-3.15,3.3-6.49,4.91-9.76c0.17,0.17,0.4,0.31,0.51,0.52
		c5.59,10.87,14.4,17.76,25.89,21.7c9.68,3.31,22.26-0.03,28.86-8.55c2.04-2.64,3.89-5.6,3.68-9.25l0,0.01
		c0.15-0.18,0.3-0.36,0.44-0.55c3.44-3.97,6.89-7.94,10.33-11.91c0.98,5.67,1.97,11.33,2.92,17c0.69,4.07,1.33,8.15,1.99,12.23
		c-1.72,1.15-3.43,2.32-5.17,3.44c-6.75,4.35-13.5,8.69-20.26,13.04c-0.3,0.09-0.63,0.15-0.91,0.28c-11.21,5.33-23,8.8-35.18,11.02
		c-4.28,0.78-8.56,1.53-12.84,2.3c-0.37-0.12-0.75-0.38-1.11-0.35c-5.38,0.31-10.76,0.63-16.14,1.01c-0.51,0.04-0.99,0.47-1.48,0.72
		c-0.84-0.16-1.68-0.46-2.53-0.47c-16.37-0.24-32.57-2.08-48.64-5.1c-7.33-1.38-14.6-3.02-21.9-4.54
		c-5.4-1.45-10.84-2.76-16.18-4.37c-10.33-3.11-20.66-6.24-30.9-9.64c-7.31-2.43-14.47-5.31-21.68-8.06
		c-1.2-0.46-2.13-0.72-2.8,0.66c2.9-19.14,1.63-38.46,2.5-57.68c0.87-19.23,5.07-37.68,16.77-53.65c0.28-0.39,0.5-0.82,0.87-1.42
		c0,0,6.27-9.38,19.8-19.69c13.52-10.31,21.17-10.47,24.49-11.3c3.32-0.83,20.73-5.33,31.44-6.27c2.98-0.26,5.98-0.42,9.25-0.65
		c-0.66-0.74-1.33-1.3-1.75-2.01c-0.97-1.66-2.15-3.3-2.64-5.11c-0.73-2.73,1.07-5.13,3.85-4.86c3.58,0.35,7.26,0.97,10.6,2.23
		c5.22,1.97,9.67,5.28,13.32,9.6c0.47,0.55,1.45,0.9,2.22,0.94c13.14,0.64,26.01,2.71,38.41,7.22c0,0,12.91,2.08,24.38,10.13
		S331.83,106.52,334.31,109.11z"/>
	<path class="st1" d="M334.31,109.11c0.96-0.89,1.86-1.68,2.72-2.53c5.21-5.13,7.98-11.42,8.57-18.63c0.42-5.1-3-7.39-7.71-5.41
		c-0.72,0.3-1.4,0.7-2.38,1.2c2.19-5.11,2.96-10.19,2.35-15.43c-0.75-6.38-3.83-8.39-9.69-5.95c-11.83,4.92-22.27,12.05-31.64,20.73
		c-1.21,1.12-2.1,1.49-3.76,0.88c0,0-3.44,16.76,9.12,25.13C314.46,117.48,331.86,110.75,334.31,109.11z"/>
	<path class="st1" d="M269.5,376.37c2.85-2.3,5.72-4.59,8.55-6.92c1.91-1.57,3.77-3.2,5.66-4.8c3.7,2.89,7.53,5.62,11.06,8.7
		c5.83,5.07,12.53,6.16,19.95,5.45c13.55-1.3,27.06-2.75,40.39-5.59c-6.79,8.82-14.97,16.13-24.16,22.36
		c-10.33,7-21.58,12.1-33.38,16.07c-0.37,0.13-0.71,0.36-1.07,0.54c-0.63,0.15-1.25,0.33-1.88,0.44
		c-5.57,0.95-11.15,1.88-16.73,2.81c-10.86,0.66-21.72,1.64-32.6,1.88c-8.35,0.19-16.73-0.55-25.1-0.87
		c-6.53-0.73-13.06-1.46-19.58-2.19c-13.82-2.1-26.96-6.27-39.24-13c-9.23-5.06-17.59-11.3-24.83-18.98c-0.38-0.4-0.67-0.9-1-1.35
		c4.77,0.73,9.55,1.38,14.3,2.2c11.39,1.97,22.76,4.03,34.15,6.03c2.54,0.45,4.43-0.47,5.46-2.92c1.69,0.12,3.38,0.3,5.07,0.36
		c3.12,0.09,5.76-2.14,6.02-5.21c0.53-6.39,0.94-12.78,1.41-19.17c0.63-8.49,1.27-16.99,1.9-25.48c0.53-7.12,1.12-14.24,1.54-21.37
		c0.2-3.31-1.87-6.22-4.89-6.99c-2.19-0.56-4.46-0.78-6.69-1.15c-13.53-2.03-27.06-4.07-40.59-6.09c-5.62-0.84-5.62-0.82-5.01-6.65
		l0.12,0.05c0,0,0.1-0.08,0.1-0.08c4.65,0.7,9.31,1.41,13.96,2.11c7.83,1.26,15.66,2.55,23.5,3.79c5.43,0.86,10.89,1.56,16.31,2.49
		c5.83,1,9.5,5.36,9.18,11.27c-0.54,9.88-1.35,19.75-2.07,29.62c-0.59,8.09-1.22,16.18-1.82,24.27c-0.15,2.02-0.27,4.04-0.41,6.06
		c-0.27,2.94-0.54,5.88-0.86,9.29c15.52-0.36,30.75-0.6,45.97-1.11C258.47,382.01,264.73,381.25,269.5,376.37z"/>
	<path class="st0" d="M162.09,162.52c-5.84,0.36-11.68,0.67-17.51,1.13c-1.05,0.08-2.11,0.71-3.07,1.25
		c-2.69,1.48-4.82,0.44-5.26-2.63c-0.75-5.26,2.48-9.16,7.8-9.44c6.33-0.34,12.66-0.67,18.98-1.01c0.89,0.01,1.8-0.08,2.67,0.06
		c2.26,0.36,3.58-0.39,4.21-2.71c0.35-1.28,1.15-2.53,2.02-3.56c7.27-8.6,16.52-13.25,27.84-13.14c10.15,0.1,20.3,0.4,30.43,0.94
		c7.11,0.38,14.08,1.63,19.62,6.76c1.72,1.59,3.36,3.26,5.04,4.9c0,0-0.01-0.02-0.01-0.02c0.17,0.17,0.34,0.34,0.51,0.52
		c0,0-0.02-0.03-0.02-0.03c0.17,0.34,0.34,0.67,0.51,1.01c0,0-0.03-0.03-0.03-0.03c0.05,0.17,0.11,0.33,0.16,0.5
		c0.86,2,1.71,3.99,2.59,6.06c6.22-0.51,12.49-1.71,18.74,0.12c1.92,0.95,1.73-0.71,1.98-1.67c2.71-10.13,9.39-16.56,19.03-17.6
		c13.97-1.5,27.98-1.69,41.99-0.45c3.57,1.61,7.15,3.22,10.72,4.84c4.66,3.22,8.01,7.52,10.15,12.73c0.83,2.01,2.46,1.14,3.74,1.21
		c3.39,0.19,5.21,1.96,5.21,5.34c0.01,3.52-2.22,5.35-6.37,5.17c-0.08,12.08-1.3,23.92-7.33,34.74c-3.44,3.97-6.89,7.94-10.33,11.9
		c-0.15,0.18-0.3,0.36-0.44,0.55c0,0,0-0.01,0-0.01c-0.71,0.33-1.42,0.68-2.15,0.98c-4.33,1.74-8.54,4.06-13.04,5.08
		c-11.89,2.72-23.61,2.02-34.23-4.64c-3.42-2.14-6.11-5.44-9.13-8.21c0.54-8.75-2.09-16.22-8.88-22c-0.14-5.76-0.24-11.52-0.5-17.28
		c-0.03-0.61-0.85-1.47-1.49-1.73c-4.93-1.93-9.87-1.53-14.72,0.31c-0.59,0.22-1.34,1.01-1.38,1.57c-0.34,5.66-0.54,11.33-0.78,17
		c-1.87,5.58-3.74,11.16-5.62,16.74c-0.95,1.39-1.91,2.78-2.86,4.17c-0.64,0.73-1.3,1.44-1.91,2.19
		c-5.31,6.55-11.96,10.92-20.37,12.3c-8.81,1.44-17.64,1.32-26.44-0.08c-8.73-1.4-16.51-4.88-22.58-11.46
		c-5.45-5.91-8.6-13.09-10.63-20.79c0.14-0.36,0.46-0.77,0.39-1.08c-1.6-6.47-2.08-13.04-1.93-19.68c0.01-0.38-0.43-0.78-0.66-1.17
		C165.21,162.27,163.65,162.39,162.09,162.52z M345.2,143.68c-3.69-2.54-7.9-3.17-12.22-3.11c-10.4,0.15-20.8,0.23-31.19,0.67
		c-8.49,0.35-13.63,4.63-15.38,12.97c-2.27,10.8-1.91,21.67,0.72,32.37c2.03,8.27,6.79,14.69,14.32,18.83
		c8.23,4.52,17.05,4.96,26.05,3.24c7.32-1.4,14.01-4.14,18.77-10.3c0.87-1.06,1.88-2.03,2.59-3.18c7.29-11.68,8.54-24.47,6.33-37.69
		C354.17,151.42,351.06,146.44,345.2,143.68z M208.53,139.77c-0.01,0.13-0.02,0.26-0.02,0.4c-2.68,0-5.37,0.05-8.05-0.01
		c-7.88-0.17-14.7,2.61-20.38,7.88c-1.86,1.73-3.53,4.19-4.19,6.61c-3.42,12.48-1.9,24.64,3.37,36.34
		c4.36,9.68,12.03,15.53,22.38,17.28c6.05,1.02,12.29,1.24,18.44,1.22c14.48-0.07,23.32-6.6,29.42-20.73
		c3.95-9.16,3.71-18.99,2.74-28.81c-1.18-11.91-9.36-17.8-19.13-18.5C224.9,140.87,216.71,140.33,208.53,139.77z"/>
	<path class="st2" d="M106.12,357.28c1.44,1.73,3.04,2.8,5.39,2.01c1.6,1.61,3.18,3.22,4.79,4.82c8.18,8.14,17.39,14.36,29.19,15.85
		c7.25,0.92,11.33-1.28,14.5-7.82c0.36-0.75,0.94-1.63,1.64-1.94c4.7-2.1,6.24-4.88,5.25-10.01c-1.42-7.37-4.6-14-8.79-20.17
		c-1.03-1.52-2.39-2.39-4.32-2.13c-2.56,0.35-5.12,0.68-7.68,1.02c-0.23-0.07-0.46-0.13-0.69-0.2c-0.02-0.21-0.05-0.42-0.07-0.63
		c3.28-0.38,6.55-0.76,9.96-1.15c0.25-0.66,0.71-1.9,0.71-1.9l-0.26-0.49c0,0-0.78-1.13-1.11-1.73c-0.42-0.78-0.8-1.6-1.15-2.42
		c-0.25-0.58-0.43-1.19-0.65-1.78c0.06,0.03,0.13,0.06,0.19,0.09c-0.06-0.04-0.12-0.07-0.18-0.11c-0.69-2.62-1.45-5.23-2.06-7.86
		c-0.99-4.24-2.11-8.47-2.75-12.76c-0.58-3.9-0.65-7.88-0.82-11.83c-0.02-0.55,0.66-1.13,1.01-1.69c-0.61,5.83-0.61,5.81,5.01,6.65
		c13.53,2.02,27.06,4.06,40.59,6.09c-0.11,0.29-0.21,0.58-0.32,0.87c1.19,0.35,2.38,0.71,3.56,1.08c0,0-0.06,0.27-0.12,0.4
		c-0.02,0.05-0.15,0.04-0.22,0.06c-0.33,0.61-0.88,1.19-0.94,1.82c-0.27,2.75-0.37,5.51-0.57,8.26c-1.1,15.55-2.17,31.11-3.34,46.66
		c-0.44,5.82-1.09,11.63-1.65,17.44c-0.26,0.81-0.51,1.63-0.77,2.44c-1.03,2.45-2.92,3.36-5.46,2.92c-11.39-2-22.76-4.06-34.15-6.03
		c-4.75-0.82-9.53-1.47-14.3-2.2c-4.74-0.99-9.46-2.04-14.21-2.95c-5.49-1.05-11-1.93-16.49-2.95c-4.21-0.79-6.7-4.1-6.35-8.4
		c0.35-4.2,0.67-11.69,1.07-15.88C99.57,350.72,105.28,356.27,106.12,357.28z M153.04,323.67c0.11-0.06,0.23-0.13,0.34-0.19
		c-0.05-0.05-0.1-0.14-0.16-0.14c-0.14,0-0.28,0.05-0.41,0.07C152.89,323.5,152.96,323.58,153.04,323.67z"/>
	<path class="st3" d="M323.76,439.92c8.18,0.17,16.37,0.21,24.54,0.57c4.92,0.22,9.82,0.94,14.72,1.46c0.56,0.06,1.18,0.19,1.61,0.5
		c0.59,0.42,1.47,1.09,1.43,1.59c-0.05,0.6-0.85,1.47-1.47,1.63c-2.58,0.65-5.2,1.31-7.84,1.53c-7.5,0.63-15.02,1.19-22.54,1.51
		c-14.1,0.6-28.21,1.19-42.32,1.46c-18.12,0.34-36.25,0.39-54.38,0.52c-6.43,0.05-12.86,0.05-19.28-0.03
		c-7.39-0.1-14.77-0.3-22.16-0.48c-5.6-0.14-11.2-0.25-16.79-0.5c-9.55-0.43-19.11-0.85-28.64-1.51c-4.91-0.34-9.8-1.08-14.66-1.91
		c-1.44-0.25-2.72-1.44-4.08-2.21c1.44-0.72,2.83-1.94,4.32-2.07c7.58-0.67,15.18-1.1,22.77-1.54c4.21-0.24,8.43-0.36,12.64-0.46
		c0.87-0.02,1.74,0.27,2.61,0.41c1.22,3.58,3.78,5.33,7.49,5.47c2.83,0.11,5.66,0.2,8.49,0.2c8.42,0,16.85,0.07,25.27-0.12
		c5.08-0.12,7.38-2.42,8.21-7.47c13.76-0.15,27.52-0.33,41.27-0.43c2.94-0.02,5.89,0.29,8.83,0.44c0.97,5.44,3.33,7.57,9.25,7.61
		c10.8,0.06,21.6-0.09,32.4-0.22C319.56,445.81,322.44,443.91,323.76,439.92z"/>
	<path class="st4" d="M323.76,439.92c-1.32,3.99-4.2,5.88-8.28,5.93c-10.8,0.13-21.6,0.28-32.4,0.22c-5.92-0.03-8.28-2.17-9.25-7.61
		c-0.58-2.4-0.12-4.9,1.56-6.37c2.41-2.11,2.61-4.56,2.57-7.3c0.32-0.04,0.66-0.02,0.96-0.12c5.56-1.79,11.03-4.09,17.1-2.85
		c0.08,0.02,0.3-0.66,0.45-1.01c-0.27,2.98,1.46,3.49,3.96,3.47c6.02-0.05,11.83,0.98,16.88,4.51
		C321.14,431.47,323.65,435.03,323.76,439.92z"/>
	<path class="st4" d="M223.72,438.45c-0.83,5.06-3.12,7.36-8.21,7.47c-8.42,0.19-16.85,0.12-25.27,0.12c-2.83,0-5.66-0.09-8.49-0.2
		c-3.71-0.14-6.28-1.89-7.49-5.47c-0.35-8.67,7.4-14.09,14.95-15.5c3.08-0.58,6.25-0.84,9.39-0.95c1.64-0.05,2.18-0.61,2.09-2.09
		c5.77,0.94,11.54,1.88,17.31,2.8c0.68,0.11,1.38,0.11,2.08,0.16c0.29,2.1,0.07,4.48,1.01,6.23
		C222.38,433.43,223.73,435.66,223.72,438.45z"/>
	<path class="st1" d="M361.5,364.67c1.29-0.4,2.57-1.05,3.88-1.14c2.92-0.18,4.23-1.77,4.87-4.44c0.99-4.15,2.17-8.25,3.27-12.37
		c3.26-0.18,6.51-0.36,9.77-0.54c6.67-1.1,13.35-2.21,20.02-3.31c-1.31,12.27-5.32,23.38-14.4,32.1
		c-7.33,7.04-16.75,5.94-22.72-2.53C364.45,369.98,363.06,367.27,361.5,364.67z"/>
	<path class="st2" d="M293.75,369.21c1.46,1.46,8.87,3.96,9.04,3.75c1.7,0.41,3.04,0.99,4.39,1.02c2.19,0.05,4.4-0.13,6.57-0.44
		c7.18-1.03,14.38-2.02,21.52-3.3c5.15-0.93,10.21-2.32,15.33-3.46c2.58-0.57,5.09-1.12,7.7-1.48c0.81-0.18,1.49-0.39,3.21-0.62
		c-1.76,2.31-4.63,6.21-6.39,8.53c-13.33,2.84-26.85,4.29-40.39,5.59c-7.42,0.71-14.13-0.37-19.95-5.45
		c-3.53-3.08-7.37-5.81-11.06-8.7c0.56-2.08,2.67-2.77,4.32-1.39c0.99,0.83,2.9,2.55,2.9,2.55"/>
	<path class="st5" d="M296.47,420.82c-0.15,0.35-0.37,1.03-0.45,1.01c-6.07-1.23-11.54,1.07-17.1,2.85c-0.3,0.1-0.64,0.08-0.96,0.12
		c-0.02-3.13-0.04-6.25-0.06-9.38c5.58-0.94,11.15-1.87,16.73-2.81c0.63-0.11,1.26-0.29,1.88-0.44
		C296.49,415.05,296.48,417.93,296.47,420.82z"/>
	<path class="st5" d="M220.09,424.8c-0.69-0.05-1.39-0.05-2.08-0.16c-5.77-0.92-11.54-1.87-17.31-2.8c-0.03-2.54-0.05-5.07-0.08-7.6
		c6.53,0.73,13.06,1.46,19.58,2.19C220.17,419.22,220.13,422.01,220.09,424.8z"/>
	<path class="st6" d="M285.76,351.72c1.08-2.63,3.24-7.87,3.24-7.87l0.95-1.64l5.47-7.41c0,0,1.91-3.6,2.84-5.41
		c0.81-1.58,2.51-4.66,2.51-4.66s1.76-2.12,2.06-3.97c-1.87-6.26-3.59-13.7-5.64-19.9c-2.08-6.28-4.51-12.44-6.73-18.67
		c-0.25-0.7-0.44-1.62-0.21-2.28c1.36-3.8,2.85-7.54,4.29-11.31c0.27-0.86,0.54-1.72,0.81-2.58c-2.79-3.08-5.58-6.16-8.37-9.24
		c-0.37-0.13-0.75-0.38-1.11-0.36c-5.38,0.31-10.76,0.63-16.14,1.01c-0.51,0.04-0.99,0.47-1.48,0.72c-2.37,2.83-4.74,5.65-7.11,8.48
		c0.55,0.93,1.09,1.87,1.64,2.8c3.21,3.86,6.46,7.68,9.59,11.6c0.41,0.52,0.49,1.52,0.36,2.23c-2.42,12.56-4.9,25.1-7.34,37.66
		c-0.23,1.19-0.81,3.81-0.92,5.02c1,2.24,2.19,3.4,3.67,5.26L285.76,351.72z"/>
	<path class="st2" d="M272.46,338.87"/>
	<path class="st1" d="M146.08,338.91c2.56-0.34,5.12-0.67,7.68-1.02c1.93-0.26,3.29,0.61,4.32,2.13c4.19,6.17,7.37,12.79,8.79,20.17
		c0.99,5.13-0.55,7.9-5.25,10.01c-0.7,0.31-1.27,1.19-1.64,1.94c-3.17,6.54-7.25,8.73-14.5,7.82c-11.8-1.49-21.01-7.71-29.19-15.85
		c-1.6-1.6-3.19-3.21-4.79-4.82c3.73-2.93,7.33-6.06,11.23-8.76C129.93,345.52,137.6,341.39,146.08,338.91z"/>
	<path class="st7" d="M268.27,258.16c-2.37,2.83-4.74,5.65-7.11,8.48c-4.55,5.28-8.91,10.73-13.69,15.8
		c-4.79,5.09-3.1,5.45-10.19,1.7c-5.3-2.81-10.53-5.77-15.78-8.66c-8.77-9.14-17.53-18.29-26.3-27.43c7.3,1.52,14.58,3.17,21.9,4.54
		c16.07,3.02,32.27,4.86,48.64,5.1C266.58,257.7,267.42,257.99,268.27,258.16z"/>
	<path class="st7" d="M262.79,269.44c3.21,3.86,6.46,7.68,9.59,11.6c0.41,0.52,0.49,1.52,0.36,2.23c-2.42,12.56-4.9,25.1-7.34,37.66
		c-0.23,1.19-0.24,2.42-0.35,3.63c-0.18,0.44-0.36,0.87-0.57,1.39c-6.81-8.09-13.59-16.17-20.41-24.21
		c-4.45-5.25-8.97-10.45-13.44-15.69c-0.62-0.73-1.15-1.53-1.72-2.3c0.76,0.17,1.58,0.22,2.28,0.54c2.66,1.21,5.29,2.5,7.93,3.76
		c3.58,1.72,4.92,1.3,7.62-1.64C252.02,280.68,257.43,275.09,262.79,269.44z"/>
	<path class="st7" d="M295.36,266.03c-2.79-3.08-5.58-6.16-8.37-9.24c4.28-0.77,8.56-1.52,12.84-2.3
		c12.18-2.21,23.97-5.68,35.18-11.02c0.28-0.14,0.61-0.19,0.91-0.28c-3.58,10.2-7.16,20.4-10.74,30.6
		c-0.13,0.38-0.35,0.72-0.53,1.08c-2.46,2.22-4.89,4.48-7.39,6.65c-2.37,2.06-3.36,2.19-5.72,0.16c-2.75-2.37-5.24-5.05-7.85-7.58
		C300.92,271.4,298.14,268.72,295.36,266.03z"/>
	<path class="st7" d="M302.83,320.76c-1.87-6.26-3.59-13.7-5.64-19.9c-2.08-6.28-4.51-12.44-6.73-18.67
		c-0.25-0.7-0.44-1.62-0.21-2.28c1.36-3.8,2.85-7.54,4.29-11.31c0.84,0.63,1.75,1.18,2.5,1.9c4.57,4.36,9.1,8.76,13.65,13.14
		c2.5,2.4,4.47,2.64,7.36,0.73c1.4-0.92,2.66-2.04,3.98-3.08c-6.07,12.58-12.13,25.16-18.22,37.73
		C303.67,319.32,303.17,320.56,302.83,320.76z"/>
	<path class="st2" d="M383.3,346.18c-3.26,0.18-6.51,0.36-9.77,0.54c0.33-2.51,0.69-11.13,0.88-12.76c0-2.36,1.09-10.49,1.09-11.91
		c-0.19-3.67-0.32-6.35-0.27-10.02c0.02-1.05,0.81-15.98,0.46-20.79c-0.19-2.6-1.26-5.13-1.81-7.72c-0.2-0.96-0.03-1.99-0.03-3
		c0.24-0.03,0.47-0.06,0.71-0.09c0.56,1.53,1.34,4.13,1.34,4.13l0.53,1.47c0,0,1.68,4.57,2.59,6.9c0.6,1.54,1.54,2.93,2.16,4.46
		c0.4,0.97,0.6,2.06,0.69,3.11c0.23,2.73,0.35,5.47,0.53,8.2c0.13,2.1,0.36,4.05,0.5,6.26c0,2.93,0.36,5.41,0.24,8.11
		c-0.08,1.93-0.14,8.86-0.13,10.42c0.01,3.73-0.22,7.46-0.29,11.2C382.71,345.21,383.1,345.7,383.3,346.18z"/>
	<path class="st2" d="M269.5,376.37c-4.77,4.88-11.03,5.64-17.29,5.85c-15.22,0.51-30.45,0.75-45.97,1.11
		c0.31-3.41,0.59-6.35,0.86-9.29c0.61,0.16,1.21,0.41,1.83,0.47c0.69,0.07,1.39-0.12,2.08-0.06c5.48,0.49,10.96,1.13,16.45,1.47
		c4.24,0.26,8.51,0.1,12.77,0.25c1.09,0.04,2.52,0.26,3.62,0.4c0.78,0.1,2.05,0.14,2.05,0.14s0.95-0.24,1.41-0.19
		c4.08,0.44,8.15,1.17,12.25,1.31c2.4,0.08,4.82-0.78,7.24-1.18C267.68,376.51,268.59,376.46,269.5,376.37z"/>
	<path class="st2" d="M162.4,296.55c-4.65-0.7-9.31-1.41-13.96-2.11c1.91-1.39,1.62-3.69,2.41-5.53c1.96-4.59,4.45-8.95,6.59-13.47
		c0.57-1.21,0.63-2.65,0.92-3.99c0.31,0.03,0.62,0.07,0.92,0.1c0,4.2,0,8.41,0,12.58c0.27,0.78,0.58,1.64,0.88,2.5l-0.01,0
		c-0.43,0.15-1.24,0.31-1.24,0.45c0.07,2.28,0.26,4.55,0.38,6.83c0.02,0.36-0.19,0.73-0.28,1.03c1.18,0.4,2.4,0.8,3.61,1.22
		c0,0-0.03,0.15-0.07,0.22C162.53,296.44,162.45,296.49,162.4,296.55z"/>
	<path class="st8" d="M262.79,269.44c-5.36,5.65-10.77,11.25-16.04,16.98c-2.7,2.93-4.04,3.35-7.62,1.64
		c-2.64-1.27-5.26-2.56-7.93-3.76c-0.7-0.32-1.52-0.37-2.28-0.54c0,0,0.07,0,0.07,0c-0.23-0.16-0.45-0.33-0.68-0.49
		c-2.27-2.59-4.54-5.19-6.82-7.78c5.26,2.89,10.48,5.86,15.78,8.66c7.09,3.75,5.4,3.38,10.19-1.7c4.78-5.07,9.14-10.52,13.69-15.8
		C261.7,267.57,262.24,268.5,262.79,269.44z"/>
	<path class="st8" d="M322.04,281.3c-1.32,1.03-2.59,2.15-3.98,3.08c-2.89,1.91-4.86,1.68-7.36-0.73
		c-4.55-4.38-9.08-8.78-13.65-13.14c-0.75-0.72-1.66-1.27-2.5-1.9c0.27-0.86,0.54-1.72,0.81-2.58c2.78,2.69,5.56,5.37,8.33,8.06
		c2.61,2.54,5.1,5.21,7.85,7.58c2.36,2.04,3.35,1.9,5.72-0.16c2.5-2.17,4.93-4.43,7.39-6.65
		C323.78,277.01,322.91,279.15,322.04,281.3z"/>
	<path class="st2" d="M226.15,374.35c0.08,0.09,0.17,0.16,0.23,0.25c0.02,0.03-0.07,0.16-0.1,0.16c-0.12,0-0.24-0.04-0.36-0.07
		C225.98,374.58,226.06,374.48,226.15,374.35z"/>
	<path class="st9" d="M228.31,283.26c0.23,0.16,0.45,0.33,0.68,0.49C228.76,283.58,228.53,283.42,228.31,283.26z"/>
	<path class="st2" d="M160.16,286.62c0.06,0.03,0.12,0.07,0.18,0.1C160.27,286.69,160.21,286.66,160.16,286.62
		C160.15,286.62,160.16,286.62,160.16,286.62z"/>
	<polygon class="st2" points="272.46,338.87 272.63,338.97 272.56,339.04 	"/>
	<path class="st10" d="M168.99,184.07c2.03,7.71,5.18,14.88,10.63,20.79c6.07,6.58,13.85,10.06,22.58,11.46
		c8.8,1.41,17.63,1.52,26.44,0.08c8.41-1.37,15.05-5.75,20.37-12.3c0.61-0.75,1.27-1.46,1.91-2.19c0.34,0.51,0.68,1.01,1.02,1.52
		c-1.99,11.6-9.46,18.65-19.6,23.36c-5.64,2.61-11.68,3.67-17.86,4.22c-9,0.8-17.64-0.51-25.76-4.37
		c-8.52-4.05-15.17-10.14-19.13-18.91c-4-8.87-6.26-18.19-6.96-27.86c-0.42-5.77-0.36-11.58-0.52-17.37
		c1.56-0.12,3.13-0.25,4.69-0.37c0,0.97,0.02,1.94,0.01,2.91C166.74,171.49,167.15,177.86,168.99,184.07z"/>
	<path class="st10" d="M254.86,145.05c-1.68-1.63-3.32-3.31-5.04-4.9c-5.54-5.13-12.51-6.38-19.62-6.76
		c-10.13-0.53-20.28-0.83-30.43-0.94c-11.32-0.11-20.57,4.54-27.84,13.14c-0.87,1.03-1.67,2.28-2.02,3.56
		c-0.63,2.32-1.95,3.08-4.21,2.71c-0.87-0.14-1.78-0.05-2.67-0.06c0.58-5.96,2.39-11.56,5.14-16.84
		c4.27-8.2,10.38-14.56,19.33-17.45c4.27-1.38,8.8-2.33,13.26-2.64c8.79-0.62,17.48,0.45,25.84,3.38
		c7.32,2.56,13.64,6.71,18.5,12.83c3.16,3.98,6.16,8.09,9.19,12.18C254.65,143.74,254.68,144.45,254.86,145.05z"/>
	<path class="st10" d="M340.31,133.44c-14.01-1.23-28.02-1.04-41.99,0.45c-9.63,1.03-16.31,7.47-19.03,17.6
		c-0.26,0.96-0.06,2.62-1.98,1.67c-0.22-5.14,0.37-10.17,1.8-15.12c1.64-5.65,5.17-10.01,9.47-13.8c5.54-4.87,11.92-8.19,19.3-8.95
		c8.25-0.85,15.82,1.15,22.52,6.32C334.61,124.86,337.48,129.11,340.31,133.44z"/>
	<path class="st4" d="M253.76,197.75c1.87-5.58,3.74-11.16,5.62-16.74c6.31-4.32,12.6-4.44,18.86,0.12c6.8,5.79,9.42,13.26,8.88,22
		c-0.13,0.79-0.27,1.58-0.4,2.37c-1.6,3.27-3.09,6.61-4.91,9.76c-0.4,0.7-1.98,0.71-3.02,1.04c-0.8-0.94-1.55-1.93-2.42-2.8
		c-1.81-1.79-3.39-4.22-5.58-5.13c-5.48-2.27-10.82-4.49-14.23-9.67C255.81,197.55,254.96,197.3,253.76,197.75z"/>
	<path class="st10" d="M286.73,205.5c0.13-0.79,0.27-1.58,0.4-2.37c3.02,2.77,5.72,6.07,9.13,8.21c10.61,6.66,22.33,7.35,34.23,4.64
		c4.5-1.03,8.7-3.34,13.04-5.08c0.73-0.29,1.43-0.65,2.15-0.98c0.21,3.65-1.64,6.61-3.68,9.25c-6.6,8.53-19.19,11.87-28.86,8.55
		c-11.5-3.94-20.3-10.83-25.89-21.7C287.13,205.82,286.9,205.67,286.73,205.5z"/>
	<path class="st5" d="M253.76,197.75c1.2-0.46,2.04-0.2,2.8,0.95c3.41,5.18,8.75,7.4,14.23,9.67c2.2,0.91,3.78,3.34,5.58,5.13
		c0.87,0.87,1.62,1.86,2.42,2.8c-0.54,0.3-1.1,0.56-1.62,0.9c-0.52,0.34-1,0.74-1.49,1.12c-2.89,2.22-5.18,0.7-7.85-0.81
		c-5.55-3.13-9.99-7.4-14.1-12.13c-0.58-0.67-1.21-1.29-1.82-1.94c-0.34-0.51-0.68-1.01-1.02-1.52
		C251.86,200.53,252.81,199.14,253.76,197.75z"/>
	<path class="st10" d="M255.84,146.52c-0.17-0.34-0.34-0.67-0.51-1.01C255.5,145.85,255.67,146.19,255.84,146.52z"/>
	<path class="st10" d="M345.67,209.93c0.15-0.18,0.3-0.36,0.44-0.55C345.96,209.57,345.81,209.75,345.67,209.93z"/>
	<path class="st10" d="M255.98,146.99c-0.05-0.17-0.11-0.33-0.16-0.5C255.87,146.66,255.92,146.82,255.98,146.99z"/>
	<path class="st10" d="M255.35,145.55c-0.17-0.17-0.34-0.34-0.51-0.52C255.01,145.2,255.18,145.37,255.35,145.55z"/>
	<path class="st0" d="M196.71,309.6c0.08-0.02,0.2-0.01,0.22-0.06c0.06-0.13,0.13-0.39,0.12-0.4c-1.18-0.37-2.37-0.73-3.56-1.08
		c0.11-0.29,0.21-0.58,0.32-0.87c2.23,0.37,4.5,0.6,6.69,1.15c3.01,0.77,5.08,3.68,4.89,6.99c-0.43,7.13-1.02,14.24-1.54,21.37
		c-0.63,8.49-1.27,16.99-1.9,25.48c-0.47,6.39-0.89,12.79-1.41,19.17c-0.25,3.07-2.89,5.3-6.02,5.21c-1.69-0.05-3.38-0.23-5.07-0.36
		c0.26-0.81,0.51-1.63,0.77-2.44c1.13,2.06,3.05,1.03,4.6,1.04c3.01,0,4.22-1.31,4.42-4.31c0.16-2.35,0.31-4.69,0.48-7.04
		c0.91-12.54,1.82-25.09,2.74-37.63c0.52-7.12,0.98-14.25,1.6-21.37c0.21-2.46-0.72-3.61-3.1-3.92
		C199.53,310.36,198.13,309.93,196.71,309.6z"/>
	<path class="st10" d="M208.53,139.77c8.18,0.56,16.37,1.1,24.55,1.68c9.77,0.7,17.95,6.59,19.13,18.5
		c0.97,9.82,1.21,19.65-2.74,28.81c-6.1,14.13-14.94,20.66-29.42,20.73c-6.15,0.03-12.39-0.2-18.44-1.22
		c-10.35-1.75-18.02-7.59-22.38-17.28c-5.27-11.7-6.78-23.87-3.37-36.34c0.66-2.42,2.33-4.88,4.19-6.61
		c5.68-5.28,12.5-8.05,20.38-7.88c2.68,0.06,5.37,0.01,8.05,0.01C208.51,140.04,208.52,139.9,208.53,139.77z M192.81,173.34
		c-0.03,7.38,1.94,14.09,6.43,20.03c8.12,10.72,23.56,12.52,33.39,3.7c5.6-5.03,8.31-11.66,8.87-18.98
		c0.83-10.92-2.23-20.46-11.4-27.24c-9.81-7.25-23.07-6.19-30.5,2.4C194.63,158.99,192.86,165.89,192.81,173.34z"/>
	<path class="st10" d="M346.27,198.34c-4.76,6.16-11.45,8.9-18.77,10.3c-9,1.72-17.82,1.28-26.05-3.24
		c-7.53-4.14-12.29-10.56-14.32-18.83c-2.63-10.71-2.99-21.58-0.72-32.37c1.75-8.33,6.89-12.61,15.38-12.97
		c10.39-0.43,20.79-0.52,31.19-0.67c4.33-0.06,8.53,0.57,12.22,3.11c0.21,1.02,0.38,2.05,0.64,3.05c0.9,3.36,2.47,6.67,2.64,10.05
		c0.58,11.59,0.12,23.18-1.56,34.69C346.59,193.75,346.48,196.05,346.27,198.34z M289.98,174.8c-0.08,8.49,3.46,16.8,10.26,22.75
		c8.37,7.32,20.04,6.68,27.49-1.49c9.26-10.17,10.4-28.94,2.43-40.18c-9.01-12.7-26.27-12.69-35.2,0.08
		C291.31,161.19,289.95,167.16,289.98,174.8z"/>
	<path class="st1" d="M346.27,198.34c0.21-2.29,0.32-4.59,0.66-6.86c1.68-11.51,2.14-23.1,1.56-34.69
		c-0.17-3.39-1.74-6.7-2.64-10.05c-0.27-1-0.43-2.03-0.64-3.05c5.86,2.76,8.97,7.74,9.99,13.79c2.22,13.22,0.96,26.01-6.33,37.69
		C348.14,196.31,347.14,197.28,346.27,198.34z"/>
	<path class="st1" d="M278.24,181.13c-6.26-4.56-12.55-4.44-18.86-0.12c0.24-5.67,0.44-11.34,0.78-17c0.03-0.56,0.78-1.35,1.38-1.57
		c4.86-1.84,9.8-2.24,14.72-0.31c0.65,0.25,1.47,1.12,1.49,1.73C278,169.61,278.1,175.37,278.24,181.13z"/>
	<path class="st2" d="M168.99,184.07c-1.83-6.21-2.25-12.58-2.2-19.01c0.01-0.97,0-1.94-0.01-2.91c0.23,0.39,0.67,0.78,0.66,1.17
		c-0.14,6.64,0.33,13.21,1.93,19.68C169.45,183.3,169.12,183.71,168.99,184.07z"/>
	<path class="st7" d="M196.71,309.6c1.41,0.32,2.81,0.76,4.24,0.95c2.38,0.31,3.31,1.46,3.1,3.92c-0.62,7.11-1.08,14.24-1.6,21.37
		c-0.91,12.54-1.83,25.09-2.74,37.63c-0.17,2.35-0.32,4.69-0.48,7.04c-0.2,3-1.41,4.31-4.42,4.31c-1.55,0-3.47,1.03-4.6-1.04
		c0.56-5.81,1.21-11.62,1.65-17.44c1.16-15.55,2.24-31.11,3.34-46.66c0.19-2.75,0.3-5.51,0.57-8.26
		C195.84,310.79,196.39,310.21,196.71,309.6z"/>
	<path class="st0" d="M153.04,323.67c-0.07-0.09-0.15-0.17-0.22-0.26c0.14-0.03,0.28-0.07,0.41-0.07c0.05,0,0.1,0.09,0.16,0.14
		C153.27,323.54,153.15,323.61,153.04,323.67z"/>
	<path class="st0" d="M152.84,328.61c0.06,0.04,0.12,0.07,0.18,0.11c-0.06-0.03-0.13-0.06-0.19-0.09
		C152.83,328.62,152.84,328.61,152.84,328.61z"/>
	<path class="st7" d="M192.81,173.34c0.05-7.45,1.81-14.35,6.79-20.1c7.44-8.59,20.69-9.65,30.5-2.4
		c9.17,6.78,12.24,16.33,11.4,27.24c-0.56,7.33-3.27,13.96-8.87,18.98c-9.83,8.82-25.28,7.03-33.39-3.7
		C194.75,187.43,192.78,180.72,192.81,173.34z M201.44,166.9c-3.72,6.25-1.33,17.28,4.64,22.33c4.61,3.9,10.81,4.23,15.74,0.73
		c9.68-6.87,8.7-25.06-1.65-30.79c-4.61-2.56-10.73-1.84-13.57,1.12c0.68,1.76,1.71,3.24,1.64,4.67c-0.05,1.04-1.4,2.62-2.43,2.87
		C204.57,168.13,203.05,167.29,201.44,166.9z"/>
	<path class="st7" d="M289.98,174.8c-0.03-7.64,1.33-13.6,4.98-18.83c8.93-12.78,26.19-12.78,35.2-0.08
		c7.97,11.24,6.84,30.01-2.43,40.18c-7.45,8.17-19.12,8.81-27.49,1.49C293.44,191.6,289.9,183.29,289.98,174.8z M297.1,164.64
		c-4.03,9.05-2.51,18.81,3.69,24.58c5.13,4.78,12.5,4.41,17.11-0.85c6.15-7.03,6.4-18.68,0.54-25.93c-4.25-5.27-11.8-6.4-16.65-2.48
		c1.88,0.85,2.92,2.44,2.27,4.3c-0.4,1.16-1.71,2.36-2.88,2.81C299.33,167.78,297.95,166.61,297.1,164.64z"/>
	<path class="st0" d="M201.44,166.9c1.61,0.39,3.13,1.23,4.38,0.93c1.04-0.26,2.38-1.83,2.43-2.87c0.07-1.43-0.96-2.91-1.64-4.67
		c2.84-2.96,8.95-3.68,13.57-1.12c10.36,5.74,11.33,23.93,1.65,30.79c-4.93,3.5-11.14,3.17-15.74-0.73
		C200.11,184.18,197.72,173.15,201.44,166.9z"/>
	<path class="st0" d="M297.1,164.64c0.85,1.97,2.24,3.14,4.09,2.44c1.18-0.44,2.48-1.65,2.88-2.81c0.65-1.87-0.39-3.45-2.27-4.3
		c4.84-3.93,12.39-2.79,16.65,2.48c5.85,7.25,5.61,18.9-0.54,25.93c-4.61,5.26-11.98,5.63-17.11,0.85
		C294.59,183.45,293.07,173.69,297.1,164.64z"/>
</g>
</svg>
