<?xml version="1.0" encoding="utf-8"?>
<!-- Generator: Adobe Illustrator 27.0.0, SVG Export Plug-In . SVG Version: 6.00 Build 0)  -->
<svg version="1.1" xmlns="http://www.w3.org/2000/svg" xmlns:xlink="http://www.w3.org/1999/xlink" x="0px" y="0px"
	 viewBox="0 0 100 100" style="enable-background:new 0 0 100 100;" xml:space="preserve">
<style type="text/css">
	.st0{fill:#2273B0;}
	.st1{fill:#FFFFFF;}
	.st2{display:none;}
	.st3{display:inline;}
</style>
<g id="레이어_3">
	<rect y="0" class="st0" width="100" height="100"/>
</g>
<g id="레이어_4">
	<path class="st1" d="M79.86,37.15c-2.87-5.27-7.13-9.02-12.8-11.26c-3.81-1.49-9-2.23-15.56-2.23c-1.63,0-2.99,0.03-4.08,0.09
		c-1.35,0.07-2.65,0.12-3.93,0.17c-0.88-1.45-1.95-2.64-3.24-3.47c-1.02-0.66-2.19-1.06-3.33-1.35c-0.71-0.18-1.29,0.38-1.45,1.19
		c-1.47-1.06-3.06-1.93-4.78-2.58c-2.22-0.84-4.65-1.25-7.03-1.48c-1.84-0.18-3.04,1.41-2.55,3.22c0.32,1.2,1.11,2.29,1.75,3.38
		c0.03,0.05,0.18,0.51,0.43,1.26c-1.41,0.17-2.59,0.51-3.51,1.04c-1.36,0.79-2.04,1.88-2.04,3.29c0,1.8,0.99,3.08,2.96,3.82
		c1.38,0.49,2.25,1.13,2.62,1.93c0.37,0.8,0.56,2.41,0.56,4.81c0,6.13-0.09,12.3-0.28,18.52c-0.19,6.22-0.39,10.4-0.62,12.55
		c-0.23,1.86-0.54,3.12-0.95,3.76c-0.4,0.64-1.17,1.11-2.32,1.4c-1.2,0.34-2.07,0.79-2.6,1.35c-0.53,0.56-0.79,1.34-0.79,2.34
		c0,1.43,0.6,2.59,1.8,3.48c1.2,0.89,2.76,1.33,4.68,1.33c0.54,0,1.52-0.06,2.92-0.17c2.23-0.17,4.25-0.26,6.06-0.26h3.09
		c2.63,0,5.69,0.06,9.15,0.17l4.47,0.13l5.2,0.17c3.89,0,7.56-0.57,11-1.72c5.84-1.95,10.43-5.33,13.75-10.14
		c1.6-2.38,2.88-5.19,3.82-8.44c0.95-3.25,1.42-6.5,1.42-9.73C83.69,47.32,82.41,41.79,79.86,37.15z M48.93,74.97
		c-1.8,0-3.09-0.38-3.87-1.14c-0.77-0.76-1.16-2.04-1.16-3.85V36.72c0-1.29,0.28-2.21,0.84-2.75c0.56-0.54,1.53-0.82,2.9-0.82
		c5.13,0,8.77,2.13,10.91,6.4c1.95,3.87,2.92,9.31,2.92,16.33C61.47,68.61,57.29,74.97,48.93,74.97z"/>
</g>
<g id="레이어_5" class="st2">
	<rect x="-8.23" y="-7.27" class="st3" width="115.76" height="115.76"/>
</g>
<g id="레이어_1" class="st2">
	<g class="st3">
		<path class="st0" d="M48.41,86.1l-4.46-0.13c-3.41-0.11-6.47-0.17-9.08-0.17h-3.09c-1.73,0-3.71,0.08-5.87,0.25
			c-1.5,0.12-2.49,0.18-3.11,0.18c-2.46,0-4.53-0.61-6.17-1.82c-1.84-1.36-2.82-3.26-2.82-5.49c0-1.66,0.5-3.03,1.48-4.06
			c0.85-0.9,2.07-1.56,3.73-2.04c0.7-0.18,0.9-0.34,0.92-0.36l0,0c-0.01,0,0.29-0.58,0.55-2.7c0.22-2.03,0.42-6.19,0.61-12.32
			c0.18-6.17,0.28-12.37,0.28-18.44c0-2.93-0.29-3.68-0.33-3.76c0,0,0,0,0,0c0,0-0.25-0.3-1.19-0.63c-3-1.13-4.63-3.32-4.63-6.18
			c0-2.29,1.17-4.22,3.29-5.45c0.36-0.21,0.75-0.4,1.16-0.56c-0.39-0.69-0.76-1.46-0.99-2.31c-0.43-1.62-0.13-3.26,0.82-4.51
			c0.91-1.19,2.32-1.87,3.86-1.87c0.17,0,0.34,0.01,0.52,0.03c3.08,0.3,5.52,0.82,7.67,1.63c1.18,0.44,2.32,0.99,3.41,1.63
			c0.51-0.28,1.07-0.43,1.68-0.43c0.29,0,0.58,0.04,0.86,0.11c1.63,0.4,2.96,0.95,4.08,1.67c1.18,0.76,2.25,1.77,3.18,3.02
			c0.82-0.04,1.66-0.07,2.51-0.12c1.12-0.06,2.54-0.09,4.21-0.09c6.94,0,12.32,0.79,16.46,2.41c6.21,2.45,10.95,6.62,14.09,12.39
			c2.74,4.98,4.13,10.97,4.13,17.78c0,3.46-0.51,6.97-1.52,10.43c-1.01,3.48-2.41,6.56-4.15,9.14c-3.64,5.27-8.69,9-15.03,11.11
			c-3.67,1.23-7.64,1.85-11.79,1.85C53.67,86.28,48.41,86.1,48.41,86.1z M46.5,35.79c-0.04,0.13-0.11,0.41-0.11,0.94v33.26
			c0,1.31,0.26,1.91,0.41,2.06c0.04,0.04,0.48,0.42,2.12,0.42c4.31,0,10.05-1.72,10.05-16.58c0-6.59-0.89-11.71-2.65-15.2
			c-1.73-3.43-4.49-5.03-8.68-5.03C46.99,35.66,46.65,35.74,46.5,35.79z"/>
		<path class="st1" d="M23.38,16.23c0.09,0,0.19,0,0.28,0.01c2.37,0.23,4.81,0.64,7.03,1.48c1.72,0.65,3.31,1.52,4.78,2.58
			c0.14-0.71,0.61-1.23,1.19-1.23c0.08,0,0.17,0.01,0.26,0.03c1.15,0.28,2.31,0.69,3.33,1.35c1.29,0.83,2.36,2.02,3.24,3.47
			c1.27-0.05,2.58-0.11,3.93-0.17c1.09-0.06,2.45-0.09,4.08-0.09c6.56,0,11.74,0.75,15.56,2.23c5.67,2.23,9.94,5.99,12.8,11.26
			c2.55,4.64,3.82,10.17,3.82,16.59c0,3.24-0.47,6.48-1.42,9.73c-0.95,3.25-2.22,6.07-3.82,8.44c-3.32,4.81-7.91,8.19-13.75,10.14
			c-3.44,1.15-7.11,1.72-11,1.72l-5.2-0.17l-4.47-0.13c-3.47-0.12-6.52-0.17-9.15-0.17h-3.09c-1.8,0-3.82,0.09-6.06,0.26
			c-1.4,0.11-2.38,0.17-2.92,0.17c-1.92,0-3.48-0.44-4.68-1.33c-1.2-0.89-1.8-2.05-1.8-3.48c0-1,0.26-1.78,0.79-2.34
			c0.53-0.56,1.4-1.01,2.6-1.35c1.15-0.29,1.92-0.75,2.32-1.4c0.4-0.64,0.72-1.9,0.95-3.76c0.23-2.15,0.44-6.33,0.62-12.55
			c0.19-6.22,0.28-12.39,0.28-18.52c0-2.41-0.19-4.01-0.56-4.81c-0.37-0.8-1.25-1.45-2.62-1.93c-1.98-0.74-2.96-2.02-2.96-3.82
			c0-1.4,0.68-2.5,2.04-3.29c0.92-0.53,2.1-0.87,3.51-1.04c-0.25-0.75-0.4-1.21-0.43-1.26c-0.64-1.1-1.43-2.18-1.75-3.38
			C20.64,17.74,21.69,16.22,23.38,16.23 M48.93,74.97c8.36,0,12.55-6.36,12.55-19.08c0-7.02-0.97-12.46-2.92-16.33
			c-2.15-4.27-5.79-6.4-10.91-6.4c-1.38,0-2.34,0.27-2.9,0.82c-0.56,0.54-0.84,1.46-0.84,2.75v33.26c0,1.8,0.39,3.09,1.16,3.85
			C45.83,74.59,47.12,74.97,48.93,74.97 M23.38,11.23C23.38,11.23,23.38,11.23,23.38,11.23c-2.33,0-4.46,1.04-5.85,2.85
			c-1.43,1.87-1.89,4.31-1.25,6.68c0.05,0.2,0.11,0.39,0.18,0.58c-2.41,1.7-3.72,4.19-3.72,7.09c0,3.87,2.21,6.95,6.07,8.45
			c0.04,0.46,0.07,1.14,0.07,2.12c0,6.05-0.09,12.23-0.28,18.37c-0.18,6.02-0.38,10.1-0.59,12.13c-0.05,0.44-0.11,0.79-0.16,1.07
			c-1.86,0.59-3.29,1.44-4.37,2.57c-0.99,1.04-2.17,2.89-2.17,5.78c0,3.01,1.36,5.68,3.84,7.5c2.07,1.53,4.65,2.31,7.65,2.31
			c0.69,0,1.75-0.06,3.33-0.19c2.07-0.16,3.98-0.24,5.65-0.24h3.09c2.59,0,5.61,0.06,8.99,0.17l4.49,0.13l5.18,0.17
			c0.06,0,0.11,0,0.17,0c4.42,0,8.65-0.66,12.58-1.98c6.86-2.29,12.34-6.34,16.28-12.04c0.01-0.02,0.02-0.03,0.03-0.05
			c1.89-2.8,3.4-6.11,4.48-9.84c1.07-3.69,1.62-7.43,1.62-11.13c0-7.24-1.49-13.63-4.44-18.99c-3.42-6.29-8.59-10.84-15.35-13.5
			c-4.45-1.74-10.13-2.58-17.39-2.58c-1.71,0-3.17,0.03-4.34,0.09c-0.41,0.02-0.82,0.04-1.23,0.06c-0.9-1.01-1.89-1.87-2.97-2.57
			c-1.35-0.87-2.93-1.52-4.83-1.99c-0.48-0.12-0.97-0.18-1.47-0.18c-0.51,0-1.01,0.06-1.48,0.18c-0.88-0.46-1.79-0.87-2.72-1.22
			c-2.36-0.89-5-1.46-8.31-1.78C23.89,11.24,23.63,11.23,23.38,11.23L23.38,11.23z M48.9,69.97V38.22c2.49,0.27,4.08,1.38,5.19,3.59
			c1.59,3.15,2.39,7.88,2.39,14.08c0,14.08-5.29,14.08-7.55,14.08C48.92,69.97,48.91,69.97,48.9,69.97L48.9,69.97z"/>
	</g>
</g>
</svg>
